<svg width="436" height="583" viewBox="0 0 436 583" xmlns="http://www.w3.org/2000/svg" xmlns:xlink="http://www.w3.org/1999/xlink"><defs><path id="a" d="M0 0h434v294H0z"/><circle id="d" cx="9" cy="9" r="9"/></defs><g fill="none" fill-rule="evenodd"><rect fill="#FFF" width="436" height="583" rx="5"/><g transform="translate(1 48)"><mask id="b" fill="#fff"><use xlink:href="#a"/></mask><use fill="#F9F8F5" xlink:href="#a"/><path d="M216.36 217.04c-22.7-10.1-49.3.1-59.4 22.8-10.12 22.7.1 49.3 22.8 59.42l8.13-18.27c-12.63-5.63-18.3-20.4-12.68-33.02 5.6-12.6 20.4-18.28 33-12.67l8.14-18.26z" fill="#8A8AA6" mask="url(#b)"/><path d="M31.22 147.82c13.9-20.6 8.47-48.58-12.14-62.47C-1.52 71.45-29.5 76.9-43.4 97.5l16.6 11.17c7.7-11.44 23.25-14.46 34.7-6.74 11.44 7.72 14.46 23.26 6.74 34.7l16.58 11.2z" fill="#FFA7DA" mask="url(#b)"/><path d="M16.5 285.64c13.54 20.84 41.4 26.77 62.25 13.23s26.77-41.4 13.24-62.25l-16.8 10.9c7.53 11.57 4.24 27.06-7.34 34.58s-27.06 4.23-34.58-7.35l-16.77 10.9z" fill="#E5DFD4" mask="url(#b)"/><path d="M171.78 72.3c23.04 9.3 49.27-1.83 58.58-24.87 9.3-23.04-1.82-49.27-24.86-58.58L198 7.4c12.8 5.16 19 19.73 13.82 32.54-5.17 12.8-19.75 18.98-32.55 13.8l-7.5 18.55z" fill="#FFC2B2" mask="url(#b)"/><path d="M329.9 64.47c-8.5 23.35 3.55 49.17 26.9 57.67 23.36 8.5 49.18-3.54 57.68-26.9l-18.8-6.83c-4.7 12.98-19.06 19.67-32.04 14.95-12.97-4.72-19.66-19.07-14.94-32.04l-18.8-6.83z" fill="#FFFC82" mask="url(#b)"/><path d="M366.28 284.66c4.3 24.47 27.65 40.8 52.13 36.5 24.48-4.32 40.82-27.66 36.5-52.13l-19.7 3.47c2.4 13.6-6.67 26.56-20.27 28.96-13.6 2.4-26.56-6.68-28.96-20.28l-19.7 3.48z" fill="#FF6679" mask="url(#b)"/><path mask="url(#b)" d="M0 0h434v294H0z"/></g><rect fill-opacity=".4" fill="#E0DFDA" x="269" y="260" width="102" height="34" rx="4"/><rect fill-opacity=".2" fill="#E0DFDA" x="65" y="179" width="306" height="35" rx="4"/><rect fill="#FFF" x="66" y="180" width="304" height="31" rx="3"/><rect fill="#2b2727" x="270" y="261" width="100" height="31" rx="3"/><path d="M1 470h434v108c0 2.2-1.8 4-4 4H5c-2.2 0-4-1.78-4-4V470z" fill="#034752"/><rect fill="#8181B1" opacity=".5" x="294" y="274" width="52" height="5" rx="1"/><rect fill="#8593A1" opacity=".2" x="145" y="25" width="32" height="4" rx="1"/><rect fill="#8593A1" opacity=".2" x="265" y="25" width="32" height="4" rx="1"/><rect fill="#8593A1" opacity=".2" x="194" y="25" width="54" height="4" rx="1"/><rect fill-opacity=".05" fill="#1E338B" x="50" y="416" width="46" height="20" rx="4"/><rect fill-opacity=".05" fill="#1E338B" x="195" y="416" width="46" height="20" rx="4"/><rect fill-opacity=".05" fill="#1E338B" x="340" y="416" width="46" height="20" rx="4"/><rect fill="#009E74" x="51" y="417" width="44" height="17" rx="3"/><rect fill="#8593A1" opacity=".2" x="52" y="373" width="42" height="4" rx="1"/><rect fill="#8593A1" opacity=".15" x="23" y="390" width="100" height="3" rx="1"/><rect fill="#8593A1" opacity=".15" x="36" y="398" width="74" height="3" rx="1"/><rect fill="#FFF" opacity=".2" x="59" y="424" width="28" height="3" rx="1"/><g fill="#FFF"><path opacity=".2" d="M17 488h33v3H17z"/><path opacity=".15" d="M17 506h70v3H17zM17 518h44v3H17zM17 530h16v3H17zM17 542h19v3H17zM17 554h19v3H17z"/></g><path fill="#FFF" opacity=".2" d="M162 488h23v3h-23z"/><path fill="#FFF" opacity=".15" d="M162 506h50v3h-50zM162 518h54v3h-54zM162 530h16v3h-16zM162 542h19v3h-19zM162 554h39v3h-39z"/><path fill="#FFF" opacity=".2" d="M307 488h28v3h-28z"/><path fill="#FFF" opacity=".15" d="M307 506h56v3h-56zM307 518h64v3h-64zM307 530h21v3h-21z"/><rect fill="#E9E8E4" opacity=".7" x="79" y="193" width="60" height="5" rx="1"/><path fill="#034752" d="M118,21.9V28c0,1.4,1.2,2.6,2.6,2.6c1.2,0,2.1-0.7,2.4-1.7l0.3,0.5c0.5,0.8,1.3,1.3,2.2,1.3
	c1.4,0,2.6-1.1,2.6-2.6c0-0.5-0.1-0.9-0.4-1.4l-1-1.6c0.7-0.6,1.2-1.4,1.2-2.5c0-2-1.6-3.5-3.6-3.5h-3.4C119,19,118,20,118,21.9
	 M117.2,28.4c0-1.1-0.7-1.9-1.7-2.1c0.4-0.3,0.7-0.8,0.7-1.4s-0.2-1.1-0.7-1.4c1-0.2,1.7-1,1.7-2.1c0-1.2-1-2.2-2.2-2.2h-4
	c-1.8,0-2.8,1-2.8,2.9v5.8c0,1.9,1,2.9,2.8,2.9h4C116.2,30.6,117.2,29.6,117.2,28.4 M105,28v-4c1.3-0.1,2.4-1.1,2.4-2.5
	s-1.1-2.5-2.5-2.5h-5.3c-1.4,0-2.5,1.1-2.5,2.5s1.1,2.4,2.4,2.5v4c0,1.4,1.2,2.6,2.7,2.6C103.8,30.6,105,29.4,105,28 M86.9,21.9V28
	c0,1.4,1.2,2.6,2.6,2.6c1.2,0,2.1-0.7,2.4-1.7l0.3,0.5c0.5,0.8,1.3,1.3,2.2,1.3c1.4,0,2.6-1.1,2.6-2.6c0-0.5-0.1-0.9-0.4-1.4l-1-1.6
	c0.7-0.6,1.2-1.4,1.2-2.5c0-2-1.6-3.5-3.6-3.5h-3.4C87.9,19,86.9,20,86.9,21.9 M80.5,28.4c0.7,1.4,1.6,2,2.7,2c2.1,0,3.5-1.9,2.6-4
	l-2.4-5.5c-0.6-1.4-1.5-2.1-2.9-2.1c-1.5,0-2.3,0.7-2.9,2.1l-2.4,5.5c-0.9,2.1,0.6,4,2.6,4C78.9,30.4,79.8,29.8,80.5,28.4 M73.7,28
	v-4c1.3-0.1,2.4-1.1,2.4-2.5S75,19,73.6,19h-5.2c-1.4,0-2.5,1.1-2.5,2.5s1.1,2.4,2.4,2.5v4c0,1.4,1.2,2.6,2.7,2.6
	C72.4,30.6,73.7,29.4,73.7,28 M65.8,26.8c0-1.2-0.6-2-1.5-2.8l-0.7-0.6c1-0.2,1.7-0.9,1.7-1.9c0-1.7-1.4-2.8-4.3-2.8
	c-2.8,0-4.5,1.4-4.5,3.7c0,1.2,0.6,2,1.5,2.8l0.7,0.6l0,0c-1.3,0-2.2,0.8-2.2,1.9c0,1.7,1.4,2.8,4.5,2.8
	C64,30.6,65.8,29.1,65.8,26.8 M55.9,27.8c0-0.5-0.2-1.1-0.5-1.5l-1.2-1.7l1.2-1.7c0.3-0.4,0.5-1,0.5-1.5c0-1.4-1.2-2.5-2.6-2.5
	c-0.8,0-1.6,0.4-2.1,1.1l-0.6,0.8c-0.2-1.1-1.2-2-2.5-2c-1.5,0-2.6,1.2-2.6,2.6v6.4c0,1.4,1.2,2.6,2.6,2.6c1.2,0,2.2-0.8,2.5-1.9
	l0.5,0.8c0.5,0.7,1.3,1.1,2.2,1.1C54.7,30.4,55.9,29.2,55.9,27.8 M44.5,27.2c0-1.2-0.6-2.1-1.8-2.6c1.2-0.5,1.8-1.4,1.8-2.6
	c0-1.9-1.6-3.2-4.1-3.2c-3.3,0-5.8,2.5-5.8,5.8s2.5,5.8,5.8,5.8C43,30.4,44.5,29.1,44.5,27.2 M30.9,18.8c-1.6,0-2.8,1.3-2.8,2.8v6
	c0,1.5,1.2,2.8,2.8,2.8c1.6,0,2.8-1.3,2.8-2.8v-6C33.7,20.1,32.5,18.8,30.9,18.8 M27.3,27.8c0-0.5-0.2-1.1-0.5-1.5l-1.2-1.7l1.2-1.7
	c0.3-0.4,0.5-1,0.5-1.5c0-1.4-1.2-2.5-2.6-2.5c-0.8,0-1.6,0.4-2.1,1.1L22,20.8c-0.2-1.1-1.2-2-2.5-2c-1.5,0-2.6,1.2-2.6,2.6v6.4
	c0,1.4,1.1,2.6,2.6,2.6c1.2,0,2.2-0.8,2.5-1.9l0.5,0.8c0.5,0.7,1.3,1.1,2.2,1.1C26.1,30.4,27.3,29.2,27.3,27.8"/><g transform="translate(401 17)"><mask id="e" fill="#fff"><use xlink:href="#d"/></mask><use fill="#F9F8F5" xlink:href="#d"/><path d="M17 18c.08-1.75-.62-2.55-.94-2.85-.33-.3-3.44-1.33-4.03-1.65-.6-.33-.4-.54-.94-.8 0-.14-.1-.58 0-.78.1-.2.38-.92.42-1.13.04-.22.06-.2.2-.13.17.06.54-1.15.54-1.3 0-.12.38-1.1-.2-.88.9-4.25-2.8-4.34-3.08-4.34-.28 0-1.87.08.3-.16-2.28 0-2.34.53-2.34.74-2.05.94-.88 3.67-.82 3.8-.34-.26-.53.34-.4.58.12.24.1.53.34 1.16.23.64.46.28.46.44 0 .15.25.84.48 1.17 0 .3.04.6-.06.96-.27.07-.45.3-.9.7-.46.4-2.9.97-3.84 1.52-.95.55-1.06.95-1.2 2.86V18h16z" fill="#D3D0C6" mask="url(#e)"/></g><path fill="#E7EAED" opacity=".5" d="M144 342h2v128h-2zM289 342h2v128h-2z"/><rect fill="#009E74" x="196" y="417" width="44" height="17" rx="3"/><rect fill="#8593A1" opacity=".2" x="200" y="373" width="36" height="4" rx="1"/><rect fill="#8593A1" opacity=".15" x="173" y="390" width="90" height="3" rx="1"/><rect fill="#8593A1" opacity=".15" x="178" y="398" width="80" height="3" rx="1"/><rect fill="#FFF" opacity=".2" x="204" y="424" width="28" height="3" rx="1"/><rect fill="#009E74" x="341" y="417" width="44" height="17" rx="3"/><rect fill="#8593A1" opacity=".2" x="348" y="373" width="30" height="4" rx="1"/><rect fill="#8593A1" opacity=".15" x="329" y="390" width="68" height="3" rx="1"/><rect fill="#8593A1" opacity=".15" x="321" y="398" width="84" height="3" rx="1"/><rect fill="#FFF" opacity=".2" x="349" y="424" width="28" height="3" rx="1"/><path fill-opacity=".15" fill="#E0DFDA" d="M1 48h434v2H1zM1 341h434v1H1z"/><rect stroke-opacity=".05" stroke="#202755" stroke-width="2" x="1" y="1" width="434" height="581" rx="4"/></g></svg>