<?xml version="1.0" encoding="iso-8859-1"?>
<!-- Generator: Adobe Illustrator 19.1.0, SVG Export Plug-In . SVG Version: 6.00 Build 0)  -->
<svg xmlns="http://www.w3.org/2000/svg" xmlns:xlink="http://www.w3.org/1999/xlink" version="1.1" id="Capa_1" x="0px" y="0px" viewBox="0 0 488.487 488.487" style="enable-background:new 0 0 488.487 488.487;" xml:space="preserve" width="512px" height="512px">
<g>
	<g>
		<path d="M85.843,103.543c84.2-86.1,221.8-89.1,309.7-7.9l-31.4,0.4l0.3,24.7l73.8-0.8l-0.8-73.8l-24.7,0.3l0.4,31.8    c-1.6-1.5-3.2-3-4.8-4.5c-0.4-0.3-0.8-0.7-1.2-1c-2.8-2.4-5.6-4.8-8.5-7.1l0,0c-44.3-35.4-99.1-54.3-156.5-53.6    s-111.6,20.7-155,57c-0.1,0.1-0.2,0.1-0.3,0.2c-2.8,2.3-5.5,4.7-8.2,7.2c-0.4,0.4-0.9,0.8-1.3,1.2c-3.1,2.8-6.1,5.8-9,8.8    l-8.6,8.8l17.5,17.1L85.843,103.543z" fill="#6772e5"/>
		<path d="M411.943,384.943c-84.2,86.1-221.8,89.1-309.7,7.9l31.4-0.4l-0.3-24.7l-73.8,0.8l0.8,73.8l24.7-0.3l-0.4-31.8    c1.6,1.5,3.2,3,4.8,4.5c0.4,0.3,0.8,0.7,1.2,1c2.8,2.4,5.6,4.8,8.5,7.1l0,0c44.3,35.4,99.1,54.3,156.5,53.6    c57.4-0.7,111.6-20.7,155-57c0.1-0.1,0.2-0.1,0.3-0.2c2.8-2.3,5.5-4.7,8.2-7.2c0.4-0.4,0.9-0.8,1.3-1.2c3.1-2.8,6.1-5.8,9-8.8    l8.6-8.8l-17.7-17.3L411.943,384.943z" fill="#6772e5"/>
		<path d="M432.743,265.943L432.743,265.943v-7.5c0,0,23.7,0.7,34.9-10.7c0,0-16.3-4.6-13.4-34.4s-3.7-55.9-27.6-53.7    c0,0-10.4-12.5-31-4.6c-7.1,2.7-26.1,9.5-25.1,50.7s-14.7,41.5-14.7,41.5s8.1,11.7,35.4,11.5v7.7l20.8,60.7l20.7-60.6    L432.743,265.943z" fill="#6772e5"/>
		<path d="M488.443,327.843l-4.2-23.1c-1.4-7.5-6.2-13.9-13-17.3l-26.1-12.9c-1.5-0.7-3-1.6-4.4-2.4l8.2,24.3l-11.5-0.9l-25.4,31.3    l-25.4-31.3l-11.5,0.9l8.4-24.3l-5.2,2.7l-25.5,12.6c-6.8,3.4-11.7,9.8-13,17.3l-4.2,23.1c-0.3,1.7,1,3.3,2.7,3.3h72.8h1.9h72.8    C487.443,331.143,488.743,329.543,488.443,327.843z" fill="#6772e5"/>
		<path d="M97.243,265.943L97.243,265.943v-7.5c0,0,23.7,0.7,34.9-10.7c0,0-16.3-4.6-13.4-34.4c2.9-29.8-3.7-55.9-27.6-53.7    c0,0-10.4-12.5-31-4.6c-7.1,2.7-26.1,9.5-25.1,50.7s-14.7,41.5-14.7,41.5s8.1,11.7,35.4,11.5v7.7l20.8,60.7l20.7-60.6V265.943z" fill="#6772e5"/>
		<path d="M77.443,331.143h72.8c1.7,0,3-1.6,2.7-3.3l-4.2-23.1c-1.4-7.5-6.2-13.9-13-17.3l-26.1-12.9c-1.5-0.7-3-1.6-4.4-2.4    l8.2,24.3l-11.5-0.9l-25.4,31.3l-25.4-31.3l-11.5,0.9l8.4-24.3l-5.2,2.7l-25.6,12.7c-6.8,3.4-11.7,9.8-13,17.3l-4.2,23.1    c-0.3,1.7,1,3.3,2.7,3.3h72.8h1.9V331.143z" fill="#6772e5"/>
	</g>
</g>
<g>
</g>
<g>
</g>
<g>
</g>
<g>
</g>
<g>
</g>
<g>
</g>
<g>
</g>
<g>
</g>
<g>
</g>
<g>
</g>
<g>
</g>
<g>
</g>
<g>
</g>
<g>
</g>
<g>
</g>
</svg>
