<?xml version="1.0" encoding="iso-8859-1"?>
<!-- Generator: Adobe Illustrator 19.0.0, SVG Export Plug-In . SVG Version: 6.00 Build 0)  -->
<svg version="1.1" id="Capa_1" xmlns="http://www.w3.org/2000/svg" xmlns:xlink="http://www.w3.org/1999/xlink" x="0px" y="0px"
	 viewBox="0 0 512 512" style="enable-background:new 0 0 512 512;" xml:space="preserve">
<circle style="fill:#005C83;" cx="256" cy="256" r="256"/>
<path style="fill:#00263F;" d="M273.963,511.363c128.708-8.924,231.224-112.971,237.709-242.336l-71.943-71.943l-5.672,12.114
	l-75.272-75.272L83.356,320.756L273.963,511.363z"/>
<path style="fill:#FF6838;" d="M426.333,386.333H173.667c-9.205,0-16.667-7.462-16.667-16.667V207
	c0-9.205,7.462-16.667,16.667-16.667h252.667c9.205,0,16.667,7.462,16.667,16.667v162.667
	C443,378.871,435.538,386.333,426.333,386.333z"/>
<path style="fill:#AE4E32;" d="M426.333,190.333H300v196h126.333c9.205,0,16.667-7.462,16.667-16.667V207
	C443,197.795,435.538,190.333,426.333,190.333z"/>
<path style="fill:#FFCF35;" d="M346.333,324.333H93.667c-9.205,0-16.667-7.462-16.667-16.667V145
	c0-9.205,7.462-16.667,16.667-16.667h252.667c9.205,0,16.667,7.462,16.667,16.667v162.667
	C363,316.871,355.538,324.333,346.333,324.333z"/>
<path style="fill:#FFB344;" d="M346.333,128.333H220.238v196h126.095c9.205,0,16.667-7.462,16.667-16.667V145
	C363,135.795,355.538,128.333,346.333,128.333z"/>
<rect x="77" y="164.33" style="fill:#333333;" width="286" height="52"/>
<rect x="220.24" y="164.33" style="fill:#1A1A1A;" width="142.76" height="52"/>
<g>
</g>
<g>
</g>
<g>
</g>
<g>
</g>
<g>
</g>
<g>
</g>
<g>
</g>
<g>
</g>
<g>
</g>
<g>
</g>
<g>
</g>
<g>
</g>
<g>
</g>
<g>
</g>
<g>
</g>
</svg>
